<mxfile host="app.diagrams.net" modified="2023-04-19T07:03:30.918Z" agent="Mozilla/5.0 (Windows NT 10.0; Win64; x64) AppleWebKit/537.36 (KHTML, like Gecko) Chrome/110.0.0.0 YaBrowser/23.3.1.895 Yowser/2.5 Safari/537.36" etag="uSoF20YKwwGAGyN9D-Ec" version="21.1.9" type="device">
  <diagram name="Страница 1" id="HmVvhoxhE4O7CXS2r_8N">
    <mxGraphModel dx="790" dy="464" grid="0" gridSize="10" guides="1" tooltips="1" connect="1" arrows="1" fold="1" page="0" pageScale="1" pageWidth="827" pageHeight="1169" math="0" shadow="0">
      <root>
        <mxCell id="0" />
        <mxCell id="1" parent="0" />
        <mxCell id="kNVPU6iSRhLmxhHYzBde-209" value="Магазины (справочник)" style="swimlane;fontStyle=0;childLayout=stackLayout;horizontal=1;startSize=30;horizontalStack=0;resizeParent=1;resizeParentMax=0;resizeLast=0;collapsible=1;marginBottom=0;whiteSpace=wrap;html=1;" parent="1" vertex="1">
          <mxGeometry x="589" y="876" width="140" height="120" as="geometry">
            <mxRectangle x="364" y="1360" width="100" height="30" as="alternateBounds" />
          </mxGeometry>
        </mxCell>
        <mxCell id="kNVPU6iSRhLmxhHYzBde-210" value="Название" style="text;strokeColor=none;fillColor=none;align=left;verticalAlign=middle;spacingLeft=4;spacingRight=4;overflow=hidden;points=[[0,0.5],[1,0.5]];portConstraint=eastwest;rotatable=0;whiteSpace=wrap;html=1;" parent="kNVPU6iSRhLmxhHYzBde-209" vertex="1">
          <mxGeometry y="30" width="140" height="30" as="geometry" />
        </mxCell>
        <mxCell id="kNVPU6iSRhLmxhHYzBde-211" value="Адрес" style="text;strokeColor=none;fillColor=none;align=left;verticalAlign=middle;spacingLeft=4;spacingRight=4;overflow=hidden;points=[[0,0.5],[1,0.5]];portConstraint=eastwest;rotatable=0;whiteSpace=wrap;html=1;" parent="kNVPU6iSRhLmxhHYzBde-209" vertex="1">
          <mxGeometry y="60" width="140" height="30" as="geometry" />
        </mxCell>
        <mxCell id="kNVPU6iSRhLmxhHYzBde-212" value="Контактный телефон" style="text;strokeColor=none;fillColor=none;align=left;verticalAlign=middle;spacingLeft=4;spacingRight=4;overflow=hidden;points=[[0,0.5],[1,0.5]];portConstraint=eastwest;rotatable=0;whiteSpace=wrap;html=1;" parent="kNVPU6iSRhLmxhHYzBde-209" vertex="1">
          <mxGeometry y="90" width="140" height="30" as="geometry" />
        </mxCell>
        <mxCell id="kNVPU6iSRhLmxhHYzBde-213" value="Сотрудники (справочник)" style="swimlane;fontStyle=0;childLayout=stackLayout;horizontal=1;startSize=30;horizontalStack=0;resizeParent=1;resizeParentMax=0;resizeLast=0;collapsible=1;marginBottom=0;whiteSpace=wrap;html=1;" parent="1" vertex="1">
          <mxGeometry x="368" y="361" width="140" height="150" as="geometry">
            <mxRectangle x="-105" y="1030" width="110" height="30" as="alternateBounds" />
          </mxGeometry>
        </mxCell>
        <mxCell id="kNVPU6iSRhLmxhHYzBde-214" value="Сотрудник" style="text;strokeColor=none;fillColor=none;align=left;verticalAlign=middle;spacingLeft=4;spacingRight=4;overflow=hidden;points=[[0,0.5],[1,0.5]];portConstraint=eastwest;rotatable=0;whiteSpace=wrap;html=1;" parent="kNVPU6iSRhLmxhHYzBde-213" vertex="1">
          <mxGeometry y="30" width="140" height="30" as="geometry" />
        </mxCell>
        <mxCell id="kNVPU6iSRhLmxhHYzBde-215" value="Должность" style="text;strokeColor=none;fillColor=none;align=left;verticalAlign=middle;spacingLeft=4;spacingRight=4;overflow=hidden;points=[[0,0.5],[1,0.5]];portConstraint=eastwest;rotatable=0;whiteSpace=wrap;html=1;" parent="kNVPU6iSRhLmxhHYzBde-213" vertex="1">
          <mxGeometry y="60" width="140" height="30" as="geometry" />
        </mxCell>
        <mxCell id="kNVPU6iSRhLmxhHYzBde-216" value="Адрес проживания" style="text;strokeColor=none;fillColor=none;align=left;verticalAlign=middle;spacingLeft=4;spacingRight=4;overflow=hidden;points=[[0,0.5],[1,0.5]];portConstraint=eastwest;rotatable=0;whiteSpace=wrap;html=1;" parent="kNVPU6iSRhLmxhHYzBde-213" vertex="1">
          <mxGeometry y="90" width="140" height="30" as="geometry" />
        </mxCell>
        <mxCell id="kNVPU6iSRhLmxhHYzBde-217" value="Контактный телефон" style="text;strokeColor=none;fillColor=none;align=left;verticalAlign=middle;spacingLeft=4;spacingRight=4;overflow=hidden;points=[[0,0.5],[1,0.5]];portConstraint=eastwest;rotatable=0;whiteSpace=wrap;html=1;" parent="kNVPU6iSRhLmxhHYzBde-213" vertex="1">
          <mxGeometry y="120" width="140" height="30" as="geometry" />
        </mxCell>
        <mxCell id="kNVPU6iSRhLmxhHYzBde-218" value="Договор с магазином (документ)" style="swimlane;fontStyle=0;childLayout=stackLayout;horizontal=1;startSize=30;horizontalStack=0;resizeParent=1;resizeParentMax=0;resizeLast=0;collapsible=1;marginBottom=0;whiteSpace=wrap;html=1;" parent="1" vertex="1">
          <mxGeometry x="773" y="880" width="140" height="150" as="geometry">
            <mxRectangle x="570" y="1340" width="160" height="30" as="alternateBounds" />
          </mxGeometry>
        </mxCell>
        <mxCell id="kNVPU6iSRhLmxhHYzBde-219" value="Код" style="text;strokeColor=none;fillColor=none;align=left;verticalAlign=middle;spacingLeft=4;spacingRight=4;overflow=hidden;points=[[0,0.5],[1,0.5]];portConstraint=eastwest;rotatable=0;whiteSpace=wrap;html=1;" parent="kNVPU6iSRhLmxhHYzBde-218" vertex="1">
          <mxGeometry y="30" width="140" height="30" as="geometry" />
        </mxCell>
        <mxCell id="kNVPU6iSRhLmxhHYzBde-220" value="Дата" style="text;strokeColor=none;fillColor=none;align=left;verticalAlign=middle;spacingLeft=4;spacingRight=4;overflow=hidden;points=[[0,0.5],[1,0.5]];portConstraint=eastwest;rotatable=0;whiteSpace=wrap;html=1;" parent="kNVPU6iSRhLmxhHYzBde-218" vertex="1">
          <mxGeometry y="60" width="140" height="30" as="geometry" />
        </mxCell>
        <mxCell id="kNVPU6iSRhLmxhHYzBde-221" value="Магазин" style="text;strokeColor=none;fillColor=none;align=left;verticalAlign=middle;spacingLeft=4;spacingRight=4;overflow=hidden;points=[[0,0.5],[1,0.5]];portConstraint=eastwest;rotatable=0;whiteSpace=wrap;html=1;" parent="kNVPU6iSRhLmxhHYzBde-218" vertex="1">
          <mxGeometry y="90" width="140" height="30" as="geometry" />
        </mxCell>
        <mxCell id="kNVPU6iSRhLmxhHYzBde-295" value="Директор" style="text;strokeColor=none;fillColor=none;align=left;verticalAlign=middle;spacingLeft=4;spacingRight=4;overflow=hidden;points=[[0,0.5],[1,0.5]];portConstraint=eastwest;rotatable=0;whiteSpace=wrap;html=1;" parent="kNVPU6iSRhLmxhHYzBde-218" vertex="1">
          <mxGeometry y="120" width="140" height="30" as="geometry" />
        </mxCell>
        <mxCell id="kNVPU6iSRhLmxhHYzBde-222" value="Договор с поставщиком (документ)" style="swimlane;fontStyle=0;childLayout=stackLayout;horizontal=1;startSize=30;horizontalStack=0;resizeParent=1;resizeParentMax=0;resizeLast=0;collapsible=1;marginBottom=0;whiteSpace=wrap;html=1;" parent="1" vertex="1">
          <mxGeometry x="1040" y="641" width="140" height="150" as="geometry">
            <mxRectangle x="320" y="440" width="170" height="30" as="alternateBounds" />
          </mxGeometry>
        </mxCell>
        <mxCell id="kNVPU6iSRhLmxhHYzBde-296" value="Код" style="text;strokeColor=none;fillColor=none;align=left;verticalAlign=middle;spacingLeft=4;spacingRight=4;overflow=hidden;points=[[0,0.5],[1,0.5]];portConstraint=eastwest;rotatable=0;whiteSpace=wrap;html=1;" parent="kNVPU6iSRhLmxhHYzBde-222" vertex="1">
          <mxGeometry y="30" width="140" height="30" as="geometry" />
        </mxCell>
        <mxCell id="kNVPU6iSRhLmxhHYzBde-299" value="Директор" style="text;strokeColor=none;fillColor=none;align=left;verticalAlign=middle;spacingLeft=4;spacingRight=4;overflow=hidden;points=[[0,0.5],[1,0.5]];portConstraint=eastwest;rotatable=0;whiteSpace=wrap;html=1;" parent="kNVPU6iSRhLmxhHYzBde-222" vertex="1">
          <mxGeometry y="60" width="140" height="30" as="geometry" />
        </mxCell>
        <mxCell id="kNVPU6iSRhLmxhHYzBde-298" value="Магазин" style="text;strokeColor=none;fillColor=none;align=left;verticalAlign=middle;spacingLeft=4;spacingRight=4;overflow=hidden;points=[[0,0.5],[1,0.5]];portConstraint=eastwest;rotatable=0;whiteSpace=wrap;html=1;" parent="kNVPU6iSRhLmxhHYzBde-222" vertex="1">
          <mxGeometry y="90" width="140" height="30" as="geometry" />
        </mxCell>
        <mxCell id="kNVPU6iSRhLmxhHYzBde-297" value="Дата" style="text;strokeColor=none;fillColor=none;align=left;verticalAlign=middle;spacingLeft=4;spacingRight=4;overflow=hidden;points=[[0,0.5],[1,0.5]];portConstraint=eastwest;rotatable=0;whiteSpace=wrap;html=1;" parent="kNVPU6iSRhLmxhHYzBde-222" vertex="1">
          <mxGeometry y="120" width="140" height="30" as="geometry" />
        </mxCell>
        <mxCell id="kNVPU6iSRhLmxhHYzBde-226" value="Накладная (документ)" style="swimlane;fontStyle=0;childLayout=stackLayout;horizontal=1;startSize=30;horizontalStack=0;resizeParent=1;resizeParentMax=0;resizeLast=0;collapsible=1;marginBottom=0;whiteSpace=wrap;html=1;" parent="1" vertex="1">
          <mxGeometry x="358" y="886" width="140" height="300" as="geometry">
            <mxRectangle x="640" y="990" width="100" height="30" as="alternateBounds" />
          </mxGeometry>
        </mxCell>
        <mxCell id="kNVPU6iSRhLmxhHYzBde-227" value="Дата" style="text;strokeColor=none;fillColor=none;align=left;verticalAlign=middle;spacingLeft=4;spacingRight=4;overflow=hidden;points=[[0,0.5],[1,0.5]];portConstraint=eastwest;rotatable=0;whiteSpace=wrap;html=1;" parent="kNVPU6iSRhLmxhHYzBde-226" vertex="1">
          <mxGeometry y="30" width="140" height="30" as="geometry" />
        </mxCell>
        <mxCell id="kNVPU6iSRhLmxhHYzBde-228" value="Код" style="text;strokeColor=none;fillColor=none;align=left;verticalAlign=middle;spacingLeft=4;spacingRight=4;overflow=hidden;points=[[0,0.5],[1,0.5]];portConstraint=eastwest;rotatable=0;whiteSpace=wrap;html=1;" parent="kNVPU6iSRhLmxhHYzBde-226" vertex="1">
          <mxGeometry y="60" width="140" height="30" as="geometry" />
        </mxCell>
        <mxCell id="kNVPU6iSRhLmxhHYzBde-229" value="Поставщик" style="text;strokeColor=none;fillColor=none;align=left;verticalAlign=middle;spacingLeft=4;spacingRight=4;overflow=hidden;points=[[0,0.5],[1,0.5]];portConstraint=eastwest;rotatable=0;whiteSpace=wrap;html=1;" parent="kNVPU6iSRhLmxhHYzBde-226" vertex="1">
          <mxGeometry y="90" width="140" height="30" as="geometry" />
        </mxCell>
        <mxCell id="kNVPU6iSRhLmxhHYzBde-230" value="Ответственный" style="text;strokeColor=none;fillColor=none;align=left;verticalAlign=middle;spacingLeft=4;spacingRight=4;overflow=hidden;points=[[0,0.5],[1,0.5]];portConstraint=eastwest;rotatable=0;whiteSpace=wrap;html=1;" parent="kNVPU6iSRhLmxhHYzBde-226" vertex="1">
          <mxGeometry y="120" width="140" height="30" as="geometry" />
        </mxCell>
        <mxCell id="kNVPU6iSRhLmxhHYzBde-231" value="Название ингредиента" style="text;strokeColor=none;fillColor=none;align=left;verticalAlign=middle;spacingLeft=4;spacingRight=4;overflow=hidden;points=[[0,0.5],[1,0.5]];portConstraint=eastwest;rotatable=0;whiteSpace=wrap;html=1;" parent="kNVPU6iSRhLmxhHYzBde-226" vertex="1">
          <mxGeometry y="150" width="140" height="30" as="geometry" />
        </mxCell>
        <mxCell id="kNVPU6iSRhLmxhHYzBde-232" value="Цена" style="text;strokeColor=none;fillColor=none;align=left;verticalAlign=middle;spacingLeft=4;spacingRight=4;overflow=hidden;points=[[0,0.5],[1,0.5]];portConstraint=eastwest;rotatable=0;whiteSpace=wrap;html=1;" parent="kNVPU6iSRhLmxhHYzBde-226" vertex="1">
          <mxGeometry y="180" width="140" height="30" as="geometry" />
        </mxCell>
        <mxCell id="kNVPU6iSRhLmxhHYzBde-233" value="Количество" style="text;strokeColor=none;fillColor=none;align=left;verticalAlign=middle;spacingLeft=4;spacingRight=4;overflow=hidden;points=[[0,0.5],[1,0.5]];portConstraint=eastwest;rotatable=0;whiteSpace=wrap;html=1;" parent="kNVPU6iSRhLmxhHYzBde-226" vertex="1">
          <mxGeometry y="210" width="140" height="30" as="geometry" />
        </mxCell>
        <mxCell id="kNVPU6iSRhLmxhHYzBde-234" value="Стоимость" style="text;strokeColor=none;fillColor=none;align=left;verticalAlign=middle;spacingLeft=4;spacingRight=4;overflow=hidden;points=[[0,0.5],[1,0.5]];portConstraint=eastwest;rotatable=0;whiteSpace=wrap;html=1;" parent="kNVPU6iSRhLmxhHYzBde-226" vertex="1">
          <mxGeometry y="240" width="140" height="30" as="geometry" />
        </mxCell>
        <mxCell id="kNVPU6iSRhLmxhHYzBde-235" value="Сумма" style="text;strokeColor=none;fillColor=none;align=left;verticalAlign=middle;spacingLeft=4;spacingRight=4;overflow=hidden;points=[[0,0.5],[1,0.5]];portConstraint=eastwest;rotatable=0;whiteSpace=wrap;html=1;" parent="kNVPU6iSRhLmxhHYzBde-226" vertex="1">
          <mxGeometry y="270" width="140" height="30" as="geometry" />
        </mxCell>
        <mxCell id="kNVPU6iSRhLmxhHYzBde-236" value="Чек (документ)" style="swimlane;fontStyle=0;childLayout=stackLayout;horizontal=1;startSize=30;horizontalStack=0;resizeParent=1;resizeParentMax=0;resizeLast=0;collapsible=1;marginBottom=0;whiteSpace=wrap;html=1;" parent="1" vertex="1">
          <mxGeometry x="589" y="551" width="160" height="270" as="geometry">
            <mxRectangle x="180" y="1430" width="60" height="30" as="alternateBounds" />
          </mxGeometry>
        </mxCell>
        <mxCell id="kNVPU6iSRhLmxhHYzBde-237" value="Код" style="text;strokeColor=none;fillColor=none;align=left;verticalAlign=middle;spacingLeft=4;spacingRight=4;overflow=hidden;points=[[0,0.5],[1,0.5]];portConstraint=eastwest;rotatable=0;whiteSpace=wrap;html=1;" parent="kNVPU6iSRhLmxhHYzBde-236" vertex="1">
          <mxGeometry y="30" width="160" height="30" as="geometry" />
        </mxCell>
        <mxCell id="kNVPU6iSRhLmxhHYzBde-238" value="Дата" style="text;strokeColor=none;fillColor=none;align=left;verticalAlign=middle;spacingLeft=4;spacingRight=4;overflow=hidden;points=[[0,0.5],[1,0.5]];portConstraint=eastwest;rotatable=0;whiteSpace=wrap;html=1;" parent="kNVPU6iSRhLmxhHYzBde-236" vertex="1">
          <mxGeometry y="60" width="160" height="30" as="geometry" />
        </mxCell>
        <mxCell id="kNVPU6iSRhLmxhHYzBde-239" value="Магазин" style="text;strokeColor=none;fillColor=none;align=left;verticalAlign=middle;spacingLeft=4;spacingRight=4;overflow=hidden;points=[[0,0.5],[1,0.5]];portConstraint=eastwest;rotatable=0;whiteSpace=wrap;html=1;" parent="kNVPU6iSRhLmxhHYzBde-236" vertex="1">
          <mxGeometry y="90" width="160" height="30" as="geometry" />
        </mxCell>
        <mxCell id="kNVPU6iSRhLmxhHYzBde-240" value="Ответственный" style="text;strokeColor=none;fillColor=none;align=left;verticalAlign=middle;spacingLeft=4;spacingRight=4;overflow=hidden;points=[[0,0.5],[1,0.5]];portConstraint=eastwest;rotatable=0;whiteSpace=wrap;html=1;" parent="kNVPU6iSRhLmxhHYzBde-236" vertex="1">
          <mxGeometry y="120" width="160" height="30" as="geometry" />
        </mxCell>
        <mxCell id="kNVPU6iSRhLmxhHYzBde-241" value="Название кондитерского изделия" style="text;strokeColor=none;fillColor=none;align=left;verticalAlign=middle;spacingLeft=4;spacingRight=4;overflow=hidden;points=[[0,0.5],[1,0.5]];portConstraint=eastwest;rotatable=0;whiteSpace=wrap;html=1;" parent="kNVPU6iSRhLmxhHYzBde-236" vertex="1">
          <mxGeometry y="150" width="160" height="30" as="geometry" />
        </mxCell>
        <mxCell id="kNVPU6iSRhLmxhHYzBde-242" value="Цена" style="text;strokeColor=none;fillColor=none;align=left;verticalAlign=middle;spacingLeft=4;spacingRight=4;overflow=hidden;points=[[0,0.5],[1,0.5]];portConstraint=eastwest;rotatable=0;whiteSpace=wrap;html=1;" parent="kNVPU6iSRhLmxhHYzBde-236" vertex="1">
          <mxGeometry y="180" width="160" height="30" as="geometry" />
        </mxCell>
        <mxCell id="kNVPU6iSRhLmxhHYzBde-244" value="Количество" style="text;strokeColor=none;fillColor=none;align=left;verticalAlign=middle;spacingLeft=4;spacingRight=4;overflow=hidden;points=[[0,0.5],[1,0.5]];portConstraint=eastwest;rotatable=0;whiteSpace=wrap;html=1;" parent="kNVPU6iSRhLmxhHYzBde-236" vertex="1">
          <mxGeometry y="210" width="160" height="30" as="geometry" />
        </mxCell>
        <mxCell id="kNVPU6iSRhLmxhHYzBde-245" value="Сумма" style="text;strokeColor=none;fillColor=none;align=left;verticalAlign=middle;spacingLeft=4;spacingRight=4;overflow=hidden;points=[[0,0.5],[1,0.5]];portConstraint=eastwest;rotatable=0;whiteSpace=wrap;html=1;" parent="kNVPU6iSRhLmxhHYzBde-236" vertex="1">
          <mxGeometry y="240" width="160" height="30" as="geometry" />
        </mxCell>
        <mxCell id="kNVPU6iSRhLmxhHYzBde-246" value="Поставщики (справочник)" style="swimlane;fontStyle=0;childLayout=stackLayout;horizontal=1;startSize=30;horizontalStack=0;resizeParent=1;resizeParentMax=0;resizeLast=0;collapsible=1;marginBottom=0;whiteSpace=wrap;html=1;" parent="1" vertex="1">
          <mxGeometry x="1040" y="495" width="140" height="120" as="geometry">
            <mxRectangle x="830" y="850" width="110" height="30" as="alternateBounds" />
          </mxGeometry>
        </mxCell>
        <mxCell id="kNVPU6iSRhLmxhHYzBde-247" value="Название" style="text;strokeColor=none;fillColor=none;align=left;verticalAlign=middle;spacingLeft=4;spacingRight=4;overflow=hidden;points=[[0,0.5],[1,0.5]];portConstraint=eastwest;rotatable=0;whiteSpace=wrap;html=1;" parent="kNVPU6iSRhLmxhHYzBde-246" vertex="1">
          <mxGeometry y="30" width="140" height="30" as="geometry" />
        </mxCell>
        <mxCell id="kNVPU6iSRhLmxhHYzBde-248" value="Адрес" style="text;strokeColor=none;fillColor=none;align=left;verticalAlign=middle;spacingLeft=4;spacingRight=4;overflow=hidden;points=[[0,0.5],[1,0.5]];portConstraint=eastwest;rotatable=0;whiteSpace=wrap;html=1;" parent="kNVPU6iSRhLmxhHYzBde-246" vertex="1">
          <mxGeometry y="60" width="140" height="30" as="geometry" />
        </mxCell>
        <mxCell id="kNVPU6iSRhLmxhHYzBde-354" value="Контактный телефон" style="text;strokeColor=none;fillColor=none;align=left;verticalAlign=middle;spacingLeft=4;spacingRight=4;overflow=hidden;points=[[0,0.5],[1,0.5]];portConstraint=eastwest;rotatable=0;whiteSpace=wrap;html=1;" parent="kNVPU6iSRhLmxhHYzBde-246" vertex="1">
          <mxGeometry y="90" width="140" height="30" as="geometry" />
        </mxCell>
        <mxCell id="kNVPU6iSRhLmxhHYzBde-249" value="Ингредиенты (справочник)" style="swimlane;fontStyle=0;childLayout=stackLayout;horizontal=1;startSize=30;horizontalStack=0;resizeParent=1;resizeParentMax=0;resizeLast=0;collapsible=1;marginBottom=0;whiteSpace=wrap;html=1;" parent="1" vertex="1">
          <mxGeometry x="599" y="405" width="140" height="120" as="geometry">
            <mxRectangle x="70" y="1080" width="110" height="30" as="alternateBounds" />
          </mxGeometry>
        </mxCell>
        <mxCell id="kNVPU6iSRhLmxhHYzBde-250" value="Название ингредиента" style="text;strokeColor=none;fillColor=none;align=left;verticalAlign=middle;spacingLeft=4;spacingRight=4;overflow=hidden;points=[[0,0.5],[1,0.5]];portConstraint=eastwest;rotatable=0;whiteSpace=wrap;html=1;" parent="kNVPU6iSRhLmxhHYzBde-249" vertex="1">
          <mxGeometry y="30" width="140" height="30" as="geometry" />
        </mxCell>
        <mxCell id="kNVPU6iSRhLmxhHYzBde-251" value="Вес" style="text;strokeColor=none;fillColor=none;align=left;verticalAlign=middle;spacingLeft=4;spacingRight=4;overflow=hidden;points=[[0,0.5],[1,0.5]];portConstraint=eastwest;rotatable=0;whiteSpace=wrap;html=1;" parent="kNVPU6iSRhLmxhHYzBde-249" vertex="1">
          <mxGeometry y="60" width="140" height="30" as="geometry" />
        </mxCell>
        <mxCell id="kNVPU6iSRhLmxhHYzBde-252" value="Цена" style="text;strokeColor=none;fillColor=none;align=left;verticalAlign=middle;spacingLeft=4;spacingRight=4;overflow=hidden;points=[[0,0.5],[1,0.5]];portConstraint=eastwest;rotatable=0;whiteSpace=wrap;html=1;" parent="kNVPU6iSRhLmxhHYzBde-249" vertex="1">
          <mxGeometry y="90" width="140" height="30" as="geometry" />
        </mxCell>
        <mxCell id="kNVPU6iSRhLmxhHYzBde-253" value="Договор с сотрудником&lt;br&gt;(документ)" style="swimlane;fontStyle=0;childLayout=stackLayout;horizontal=1;startSize=30;horizontalStack=0;resizeParent=1;resizeParentMax=0;resizeLast=0;collapsible=1;marginBottom=0;whiteSpace=wrap;html=1;" parent="1" vertex="1">
          <mxGeometry x="108" y="796" width="140" height="150" as="geometry">
            <mxRectangle x="550" y="790" width="110" height="30" as="alternateBounds" />
          </mxGeometry>
        </mxCell>
        <mxCell id="kNVPU6iSRhLmxhHYzBde-254" value="Сотрудник&amp;nbsp;" style="text;strokeColor=none;fillColor=none;align=left;verticalAlign=middle;spacingLeft=4;spacingRight=4;overflow=hidden;points=[[0,0.5],[1,0.5]];portConstraint=eastwest;rotatable=0;whiteSpace=wrap;html=1;" parent="kNVPU6iSRhLmxhHYzBde-253" vertex="1">
          <mxGeometry y="30" width="140" height="30" as="geometry" />
        </mxCell>
        <mxCell id="kNVPU6iSRhLmxhHYzBde-255" value="Должность" style="text;strokeColor=none;fillColor=none;align=left;verticalAlign=middle;spacingLeft=4;spacingRight=4;overflow=hidden;points=[[0,0.5],[1,0.5]];portConstraint=eastwest;rotatable=0;whiteSpace=wrap;html=1;" parent="kNVPU6iSRhLmxhHYzBde-253" vertex="1">
          <mxGeometry y="60" width="140" height="30" as="geometry" />
        </mxCell>
        <mxCell id="kNVPU6iSRhLmxhHYzBde-256" value="Адрес проживания" style="text;strokeColor=none;fillColor=none;align=left;verticalAlign=middle;spacingLeft=4;spacingRight=4;overflow=hidden;points=[[0,0.5],[1,0.5]];portConstraint=eastwest;rotatable=0;whiteSpace=wrap;html=1;" parent="kNVPU6iSRhLmxhHYzBde-253" vertex="1">
          <mxGeometry y="90" width="140" height="30" as="geometry" />
        </mxCell>
        <mxCell id="kNVPU6iSRhLmxhHYzBde-257" value="Контактный телефон" style="text;strokeColor=none;fillColor=none;align=left;verticalAlign=middle;spacingLeft=4;spacingRight=4;overflow=hidden;points=[[0,0.5],[1,0.5]];portConstraint=eastwest;rotatable=0;whiteSpace=wrap;html=1;" parent="kNVPU6iSRhLmxhHYzBde-253" vertex="1">
          <mxGeometry y="120" width="140" height="30" as="geometry" />
        </mxCell>
        <mxCell id="kNVPU6iSRhLmxhHYzBde-258" value="Документ об увольнении (документ)" style="swimlane;fontStyle=0;childLayout=stackLayout;horizontal=1;startSize=30;horizontalStack=0;resizeParent=1;resizeParentMax=0;resizeLast=0;collapsible=1;marginBottom=0;whiteSpace=wrap;html=1;" parent="1" vertex="1">
          <mxGeometry x="110" y="590" width="140" height="180" as="geometry">
            <mxRectangle x="-120" y="810" width="110" height="30" as="alternateBounds" />
          </mxGeometry>
        </mxCell>
        <mxCell id="kNVPU6iSRhLmxhHYzBde-259" value="Код" style="text;strokeColor=none;fillColor=none;align=left;verticalAlign=middle;spacingLeft=4;spacingRight=4;overflow=hidden;points=[[0,0.5],[1,0.5]];portConstraint=eastwest;rotatable=0;whiteSpace=wrap;html=1;" parent="kNVPU6iSRhLmxhHYzBde-258" vertex="1">
          <mxGeometry y="30" width="140" height="30" as="geometry" />
        </mxCell>
        <mxCell id="kNVPU6iSRhLmxhHYzBde-260" value="Дата" style="text;strokeColor=none;fillColor=none;align=left;verticalAlign=middle;spacingLeft=4;spacingRight=4;overflow=hidden;points=[[0,0.5],[1,0.5]];portConstraint=eastwest;rotatable=0;whiteSpace=wrap;html=1;" parent="kNVPU6iSRhLmxhHYzBde-258" vertex="1">
          <mxGeometry y="60" width="140" height="30" as="geometry" />
        </mxCell>
        <mxCell id="kNVPU6iSRhLmxhHYzBde-261" value="Сотрудник" style="text;strokeColor=none;fillColor=none;align=left;verticalAlign=middle;spacingLeft=4;spacingRight=4;overflow=hidden;points=[[0,0.5],[1,0.5]];portConstraint=eastwest;rotatable=0;whiteSpace=wrap;html=1;" parent="kNVPU6iSRhLmxhHYzBde-258" vertex="1">
          <mxGeometry y="90" width="140" height="30" as="geometry" />
        </mxCell>
        <mxCell id="kNVPU6iSRhLmxhHYzBde-262" value="Должность" style="text;strokeColor=none;fillColor=none;align=left;verticalAlign=middle;spacingLeft=4;spacingRight=4;overflow=hidden;points=[[0,0.5],[1,0.5]];portConstraint=eastwest;rotatable=0;whiteSpace=wrap;html=1;" parent="kNVPU6iSRhLmxhHYzBde-258" vertex="1">
          <mxGeometry y="120" width="140" height="30" as="geometry" />
        </mxCell>
        <mxCell id="kNVPU6iSRhLmxhHYzBde-263" value="Причина" style="text;strokeColor=none;fillColor=none;align=left;verticalAlign=middle;spacingLeft=4;spacingRight=4;overflow=hidden;points=[[0,0.5],[1,0.5]];portConstraint=eastwest;rotatable=0;whiteSpace=wrap;html=1;" parent="kNVPU6iSRhLmxhHYzBde-258" vertex="1">
          <mxGeometry y="150" width="140" height="30" as="geometry" />
        </mxCell>
        <mxCell id="kNVPU6iSRhLmxhHYzBde-264" value="Расчёт з/п (документ)" style="swimlane;fontStyle=0;childLayout=stackLayout;horizontal=1;startSize=30;horizontalStack=0;resizeParent=1;resizeParentMax=0;resizeLast=0;collapsible=1;marginBottom=0;whiteSpace=wrap;html=1;" parent="1" vertex="1">
          <mxGeometry x="112" y="353" width="140" height="210" as="geometry">
            <mxRectangle x="460" y="950" width="170" height="30" as="alternateBounds" />
          </mxGeometry>
        </mxCell>
        <mxCell id="kNVPU6iSRhLmxhHYzBde-265" value="Сотрудники" style="text;strokeColor=none;fillColor=none;align=left;verticalAlign=middle;spacingLeft=4;spacingRight=4;overflow=hidden;points=[[0,0.5],[1,0.5]];portConstraint=eastwest;rotatable=0;whiteSpace=wrap;html=1;" parent="kNVPU6iSRhLmxhHYzBde-264" vertex="1">
          <mxGeometry y="30" width="140" height="30" as="geometry" />
        </mxCell>
        <mxCell id="kNVPU6iSRhLmxhHYzBde-266" value="Бухгалтер" style="text;strokeColor=none;fillColor=none;align=left;verticalAlign=middle;spacingLeft=4;spacingRight=4;overflow=hidden;points=[[0,0.5],[1,0.5]];portConstraint=eastwest;rotatable=0;whiteSpace=wrap;html=1;" parent="kNVPU6iSRhLmxhHYzBde-264" vertex="1">
          <mxGeometry y="60" width="140" height="30" as="geometry" />
        </mxCell>
        <mxCell id="kNVPU6iSRhLmxhHYzBde-267" value="Должность" style="text;strokeColor=none;fillColor=none;align=left;verticalAlign=middle;spacingLeft=4;spacingRight=4;overflow=hidden;points=[[0,0.5],[1,0.5]];portConstraint=eastwest;rotatable=0;whiteSpace=wrap;html=1;" parent="kNVPU6iSRhLmxhHYzBde-264" vertex="1">
          <mxGeometry y="90" width="140" height="30" as="geometry" />
        </mxCell>
        <mxCell id="kNVPU6iSRhLmxhHYzBde-268" value="Заработная плата" style="text;strokeColor=none;fillColor=none;align=left;verticalAlign=middle;spacingLeft=4;spacingRight=4;overflow=hidden;points=[[0,0.5],[1,0.5]];portConstraint=eastwest;rotatable=0;whiteSpace=wrap;html=1;" parent="kNVPU6iSRhLmxhHYzBde-264" vertex="1">
          <mxGeometry y="120" width="140" height="30" as="geometry" />
        </mxCell>
        <mxCell id="kNVPU6iSRhLmxhHYzBde-269" value="Премия" style="text;strokeColor=none;fillColor=none;align=left;verticalAlign=middle;spacingLeft=4;spacingRight=4;overflow=hidden;points=[[0,0.5],[1,0.5]];portConstraint=eastwest;rotatable=0;whiteSpace=wrap;html=1;" parent="kNVPU6iSRhLmxhHYzBde-264" vertex="1">
          <mxGeometry y="150" width="140" height="30" as="geometry" />
        </mxCell>
        <mxCell id="kNVPU6iSRhLmxhHYzBde-270" value="Налог" style="text;strokeColor=none;fillColor=none;align=left;verticalAlign=middle;spacingLeft=4;spacingRight=4;overflow=hidden;points=[[0,0.5],[1,0.5]];portConstraint=eastwest;rotatable=0;whiteSpace=wrap;html=1;" parent="kNVPU6iSRhLmxhHYzBde-264" vertex="1">
          <mxGeometry y="180" width="140" height="30" as="geometry" />
        </mxCell>
        <mxCell id="kNVPU6iSRhLmxhHYzBde-274" value="Учёт ингредиентов (документ)" style="swimlane;fontStyle=0;childLayout=stackLayout;horizontal=1;startSize=30;horizontalStack=0;resizeParent=1;resizeParentMax=0;resizeLast=0;collapsible=1;marginBottom=0;whiteSpace=wrap;html=1;" parent="1" vertex="1">
          <mxGeometry x="1048" y="362" width="140" height="120" as="geometry">
            <mxRectangle x="220" y="1060" width="170" height="30" as="alternateBounds" />
          </mxGeometry>
        </mxCell>
        <mxCell id="kNVPU6iSRhLmxhHYzBde-275" value="Название ингредиента" style="text;strokeColor=none;fillColor=none;align=left;verticalAlign=middle;spacingLeft=4;spacingRight=4;overflow=hidden;points=[[0,0.5],[1,0.5]];portConstraint=eastwest;rotatable=0;whiteSpace=wrap;html=1;" parent="kNVPU6iSRhLmxhHYzBde-274" vertex="1">
          <mxGeometry y="30" width="140" height="30" as="geometry" />
        </mxCell>
        <mxCell id="kNVPU6iSRhLmxhHYzBde-276" value="Количество" style="text;strokeColor=none;fillColor=none;align=left;verticalAlign=middle;spacingLeft=4;spacingRight=4;overflow=hidden;points=[[0,0.5],[1,0.5]];portConstraint=eastwest;rotatable=0;whiteSpace=wrap;html=1;" parent="kNVPU6iSRhLmxhHYzBde-274" vertex="1">
          <mxGeometry y="60" width="140" height="30" as="geometry" />
        </mxCell>
        <mxCell id="kNVPU6iSRhLmxhHYzBde-277" value="Цена" style="text;strokeColor=none;fillColor=none;align=left;verticalAlign=middle;spacingLeft=4;spacingRight=4;overflow=hidden;points=[[0,0.5],[1,0.5]];portConstraint=eastwest;rotatable=0;whiteSpace=wrap;html=1;" parent="kNVPU6iSRhLmxhHYzBde-274" vertex="1">
          <mxGeometry y="90" width="140" height="30" as="geometry" />
        </mxCell>
        <mxCell id="kNVPU6iSRhLmxhHYzBde-278" value="Ингредиенты складе (регистры накоплений)" style="swimlane;fontStyle=0;childLayout=stackLayout;horizontal=1;startSize=30;horizontalStack=0;resizeParent=1;resizeParentMax=0;resizeLast=0;collapsible=1;marginBottom=0;whiteSpace=wrap;html=1;" parent="1" vertex="1">
          <mxGeometry x="825" y="515" width="140" height="90" as="geometry">
            <mxRectangle x="100" y="810" width="110" height="30" as="alternateBounds" />
          </mxGeometry>
        </mxCell>
        <mxCell id="kNVPU6iSRhLmxhHYzBde-279" value="Ингредиенты" style="text;strokeColor=none;fillColor=none;align=left;verticalAlign=middle;spacingLeft=4;spacingRight=4;overflow=hidden;points=[[0,0.5],[1,0.5]];portConstraint=eastwest;rotatable=0;whiteSpace=wrap;html=1;" parent="kNVPU6iSRhLmxhHYzBde-278" vertex="1">
          <mxGeometry y="30" width="140" height="30" as="geometry" />
        </mxCell>
        <mxCell id="kNVPU6iSRhLmxhHYzBde-280" value="Количество" style="text;strokeColor=none;fillColor=none;align=left;verticalAlign=middle;spacingLeft=4;spacingRight=4;overflow=hidden;points=[[0,0.5],[1,0.5]];portConstraint=eastwest;rotatable=0;whiteSpace=wrap;html=1;" parent="kNVPU6iSRhLmxhHYzBde-278" vertex="1">
          <mxGeometry y="60" width="140" height="30" as="geometry" />
        </mxCell>
        <mxCell id="kNVPU6iSRhLmxhHYzBde-281" value="Деньги&lt;br&gt;(регистры накоплений)" style="swimlane;fontStyle=0;childLayout=stackLayout;horizontal=1;startSize=30;horizontalStack=0;resizeParent=1;resizeParentMax=0;resizeLast=0;collapsible=1;marginBottom=0;whiteSpace=wrap;html=1;" parent="1" vertex="1">
          <mxGeometry x="882" y="715" width="140" height="90" as="geometry">
            <mxRectangle x="100" y="810" width="110" height="30" as="alternateBounds" />
          </mxGeometry>
        </mxCell>
        <mxCell id="kNVPU6iSRhLmxhHYzBde-282" value="Материал" style="text;strokeColor=none;fillColor=none;align=left;verticalAlign=middle;spacingLeft=4;spacingRight=4;overflow=hidden;points=[[0,0.5],[1,0.5]];portConstraint=eastwest;rotatable=0;whiteSpace=wrap;html=1;" parent="kNVPU6iSRhLmxhHYzBde-281" vertex="1">
          <mxGeometry y="30" width="140" height="30" as="geometry" />
        </mxCell>
        <mxCell id="kNVPU6iSRhLmxhHYzBde-283" value="Сумма" style="text;strokeColor=none;fillColor=none;align=left;verticalAlign=middle;spacingLeft=4;spacingRight=4;overflow=hidden;points=[[0,0.5],[1,0.5]];portConstraint=eastwest;rotatable=0;whiteSpace=wrap;html=1;" parent="kNVPU6iSRhLmxhHYzBde-281" vertex="1">
          <mxGeometry y="60" width="140" height="30" as="geometry" />
        </mxCell>
        <mxCell id="kNVPU6iSRhLmxhHYzBde-284" value="Цены поставщиков (регистры сведений)" style="swimlane;fontStyle=0;childLayout=stackLayout;horizontal=1;startSize=30;horizontalStack=0;resizeParent=1;resizeParentMax=0;resizeLast=0;collapsible=1;marginBottom=0;whiteSpace=wrap;html=1;" parent="1" vertex="1">
          <mxGeometry x="805" y="405" width="140" height="90" as="geometry">
            <mxRectangle x="100" y="810" width="110" height="30" as="alternateBounds" />
          </mxGeometry>
        </mxCell>
        <mxCell id="kNVPU6iSRhLmxhHYzBde-285" value="Название ингредиета" style="text;strokeColor=none;fillColor=none;align=left;verticalAlign=middle;spacingLeft=4;spacingRight=4;overflow=hidden;points=[[0,0.5],[1,0.5]];portConstraint=eastwest;rotatable=0;whiteSpace=wrap;html=1;" parent="kNVPU6iSRhLmxhHYzBde-284" vertex="1">
          <mxGeometry y="30" width="140" height="30" as="geometry" />
        </mxCell>
        <mxCell id="kNVPU6iSRhLmxhHYzBde-286" value="Цена" style="text;strokeColor=none;fillColor=none;align=left;verticalAlign=middle;spacingLeft=4;spacingRight=4;overflow=hidden;points=[[0,0.5],[1,0.5]];portConstraint=eastwest;rotatable=0;whiteSpace=wrap;html=1;" parent="kNVPU6iSRhLmxhHYzBde-284" vertex="1">
          <mxGeometry y="60" width="140" height="30" as="geometry" />
        </mxCell>
        <mxCell id="kNVPU6iSRhLmxhHYzBde-287" value="Цены при продаже (регистры сведений)" style="swimlane;fontStyle=0;childLayout=stackLayout;horizontal=1;startSize=30;horizontalStack=0;resizeParent=1;resizeParentMax=0;resizeLast=0;collapsible=1;marginBottom=0;whiteSpace=wrap;html=1;" parent="1" vertex="1">
          <mxGeometry x="363" y="563" width="140" height="90" as="geometry">
            <mxRectangle x="100" y="810" width="110" height="30" as="alternateBounds" />
          </mxGeometry>
        </mxCell>
        <mxCell id="kNVPU6iSRhLmxhHYzBde-288" value="Название кондитерского изделия" style="text;strokeColor=none;fillColor=none;align=left;verticalAlign=middle;spacingLeft=4;spacingRight=4;overflow=hidden;points=[[0,0.5],[1,0.5]];portConstraint=eastwest;rotatable=0;whiteSpace=wrap;html=1;" parent="kNVPU6iSRhLmxhHYzBde-287" vertex="1">
          <mxGeometry y="30" width="140" height="30" as="geometry" />
        </mxCell>
        <mxCell id="kNVPU6iSRhLmxhHYzBde-289" value="Цена" style="text;strokeColor=none;fillColor=none;align=left;verticalAlign=middle;spacingLeft=4;spacingRight=4;overflow=hidden;points=[[0,0.5],[1,0.5]];portConstraint=eastwest;rotatable=0;whiteSpace=wrap;html=1;" parent="kNVPU6iSRhLmxhHYzBde-287" vertex="1">
          <mxGeometry y="60" width="140" height="30" as="geometry" />
        </mxCell>
        <mxCell id="kNVPU6iSRhLmxhHYzBde-290" value="Кондитерские изделия (справочник)" style="swimlane;fontStyle=0;childLayout=stackLayout;horizontal=1;startSize=30;horizontalStack=0;resizeParent=1;resizeParentMax=0;resizeLast=0;collapsible=1;marginBottom=0;whiteSpace=wrap;html=1;" parent="1" vertex="1">
          <mxGeometry x="358" y="698" width="140" height="150" as="geometry">
            <mxRectangle x="150" y="1230" width="140" height="30" as="alternateBounds" />
          </mxGeometry>
        </mxCell>
        <mxCell id="kNVPU6iSRhLmxhHYzBde-291" value="Название" style="text;strokeColor=none;fillColor=none;align=left;verticalAlign=middle;spacingLeft=4;spacingRight=4;overflow=hidden;points=[[0,0.5],[1,0.5]];portConstraint=eastwest;rotatable=0;whiteSpace=wrap;html=1;" parent="kNVPU6iSRhLmxhHYzBde-290" vertex="1">
          <mxGeometry y="30" width="140" height="30" as="geometry" />
        </mxCell>
        <mxCell id="kNVPU6iSRhLmxhHYzBde-292" value="Фото" style="text;strokeColor=none;fillColor=none;align=left;verticalAlign=middle;spacingLeft=4;spacingRight=4;overflow=hidden;points=[[0,0.5],[1,0.5]];portConstraint=eastwest;rotatable=0;whiteSpace=wrap;html=1;" parent="kNVPU6iSRhLmxhHYzBde-290" vertex="1">
          <mxGeometry y="60" width="140" height="30" as="geometry" />
        </mxCell>
        <mxCell id="kNVPU6iSRhLmxhHYzBde-293" value="Описание" style="text;strokeColor=none;fillColor=none;align=left;verticalAlign=middle;spacingLeft=4;spacingRight=4;overflow=hidden;points=[[0,0.5],[1,0.5]];portConstraint=eastwest;rotatable=0;whiteSpace=wrap;html=1;" parent="kNVPU6iSRhLmxhHYzBde-290" vertex="1">
          <mxGeometry y="90" width="140" height="30" as="geometry" />
        </mxCell>
        <mxCell id="kNVPU6iSRhLmxhHYzBde-294" value="Цена" style="text;strokeColor=none;fillColor=none;align=left;verticalAlign=middle;spacingLeft=4;spacingRight=4;overflow=hidden;points=[[0,0.5],[1,0.5]];portConstraint=eastwest;rotatable=0;whiteSpace=wrap;html=1;" parent="kNVPU6iSRhLmxhHYzBde-290" vertex="1">
          <mxGeometry y="120" width="140" height="30" as="geometry" />
        </mxCell>
        <mxCell id="kNVPU6iSRhLmxhHYzBde-300" value="" style="endArrow=none;html=1;rounded=0;entryX=0;entryY=0.5;entryDx=0;entryDy=0;exitX=1;exitY=0.5;exitDx=0;exitDy=0;edgeStyle=orthogonalEdgeStyle;startArrow=none;startFill=0;jumpStyle=arc;" parent="1" source="kNVPU6iSRhLmxhHYzBde-265" target="kNVPU6iSRhLmxhHYzBde-214" edge="1">
          <mxGeometry width="50" height="50" relative="1" as="geometry">
            <mxPoint x="439" y="449" as="sourcePoint" />
            <mxPoint x="489" y="399" as="targetPoint" />
          </mxGeometry>
        </mxCell>
        <mxCell id="kNVPU6iSRhLmxhHYzBde-302" value="1" style="text;html=1;strokeColor=none;fillColor=none;align=center;verticalAlign=middle;whiteSpace=wrap;rounded=0;fontSize=11;fontFamily=Helvetica;fontColor=default;" parent="1" vertex="1">
          <mxGeometry x="227" y="375" width="60" height="30" as="geometry" />
        </mxCell>
        <mxCell id="kNVPU6iSRhLmxhHYzBde-303" value="N" style="text;html=1;strokeColor=none;fillColor=none;align=center;verticalAlign=middle;whiteSpace=wrap;rounded=0;fontSize=11;fontFamily=Helvetica;fontColor=default;" parent="1" vertex="1">
          <mxGeometry x="327" y="381" width="60" height="30" as="geometry" />
        </mxCell>
        <mxCell id="kNVPU6iSRhLmxhHYzBde-308" style="edgeStyle=orthogonalEdgeStyle;shape=connector;rounded=0;jumpStyle=arc;orthogonalLoop=1;jettySize=auto;html=1;entryX=1;entryY=0.5;entryDx=0;entryDy=0;labelBackgroundColor=default;strokeColor=default;fontFamily=Helvetica;fontSize=11;fontColor=default;startArrow=none;startFill=0;endArrow=none;" parent="1" source="kNVPU6iSRhLmxhHYzBde-304" target="kNVPU6iSRhLmxhHYzBde-213" edge="1">
          <mxGeometry relative="1" as="geometry" />
        </mxCell>
        <mxCell id="kNVPU6iSRhLmxhHYzBde-315" style="edgeStyle=orthogonalEdgeStyle;shape=connector;rounded=0;jumpStyle=arc;orthogonalLoop=1;jettySize=auto;html=1;labelBackgroundColor=default;strokeColor=default;fontFamily=Helvetica;fontSize=11;fontColor=default;startArrow=none;startFill=0;endArrow=none;" parent="1" source="kNVPU6iSRhLmxhHYzBde-304" target="kNVPU6iSRhLmxhHYzBde-262" edge="1">
          <mxGeometry relative="1" as="geometry">
            <Array as="points">
              <mxPoint x="566" y="347" />
              <mxPoint x="566" y="448" />
              <mxPoint x="517" y="448" />
              <mxPoint x="517" y="517" />
              <mxPoint x="323" y="517" />
              <mxPoint x="323" y="725" />
            </Array>
          </mxGeometry>
        </mxCell>
        <mxCell id="kNVPU6iSRhLmxhHYzBde-304" value="Должности&lt;br&gt;(перечесление)" style="swimlane;fontStyle=0;childLayout=stackLayout;horizontal=1;startSize=30;horizontalStack=0;resizeParent=1;resizeParentMax=0;resizeLast=0;collapsible=1;marginBottom=0;whiteSpace=wrap;html=1;fontFamily=Helvetica;fontSize=11;fontColor=default;" parent="1" vertex="1" collapsed="1">
          <mxGeometry x="604" y="325" width="114" height="38" as="geometry">
            <mxRectangle x="591" y="386" width="140" height="120" as="alternateBounds" />
          </mxGeometry>
        </mxCell>
        <mxCell id="kNVPU6iSRhLmxhHYzBde-305" value="Item 1" style="text;strokeColor=none;fillColor=none;align=left;verticalAlign=middle;spacingLeft=4;spacingRight=4;overflow=hidden;points=[[0,0.5],[1,0.5]];portConstraint=eastwest;rotatable=0;whiteSpace=wrap;html=1;fontSize=11;fontFamily=Helvetica;fontColor=default;" parent="kNVPU6iSRhLmxhHYzBde-304" vertex="1">
          <mxGeometry y="30" width="140" height="30" as="geometry" />
        </mxCell>
        <mxCell id="kNVPU6iSRhLmxhHYzBde-306" value="Item 2" style="text;strokeColor=none;fillColor=none;align=left;verticalAlign=middle;spacingLeft=4;spacingRight=4;overflow=hidden;points=[[0,0.5],[1,0.5]];portConstraint=eastwest;rotatable=0;whiteSpace=wrap;html=1;fontSize=11;fontFamily=Helvetica;fontColor=default;" parent="kNVPU6iSRhLmxhHYzBde-304" vertex="1">
          <mxGeometry y="60" width="140" height="30" as="geometry" />
        </mxCell>
        <mxCell id="kNVPU6iSRhLmxhHYzBde-307" value="Item 3" style="text;strokeColor=none;fillColor=none;align=left;verticalAlign=middle;spacingLeft=4;spacingRight=4;overflow=hidden;points=[[0,0.5],[1,0.5]];portConstraint=eastwest;rotatable=0;whiteSpace=wrap;html=1;fontSize=11;fontFamily=Helvetica;fontColor=default;" parent="kNVPU6iSRhLmxhHYzBde-304" vertex="1">
          <mxGeometry y="90" width="140" height="30" as="geometry" />
        </mxCell>
        <mxCell id="kNVPU6iSRhLmxhHYzBde-309" value="1" style="text;html=1;strokeColor=none;fillColor=none;align=center;verticalAlign=middle;whiteSpace=wrap;rounded=0;fontSize=11;fontFamily=Helvetica;fontColor=default;" parent="1" vertex="1">
          <mxGeometry x="484" y="413" width="60" height="30" as="geometry" />
        </mxCell>
        <mxCell id="kNVPU6iSRhLmxhHYzBde-310" value="N" style="text;html=1;strokeColor=none;fillColor=none;align=center;verticalAlign=middle;whiteSpace=wrap;rounded=0;fontSize=11;fontFamily=Helvetica;fontColor=default;" parent="1" vertex="1">
          <mxGeometry x="565" y="323" width="60" height="30" as="geometry" />
        </mxCell>
        <mxCell id="kNVPU6iSRhLmxhHYzBde-312" value="" style="endArrow=none;html=1;rounded=0;exitX=1;exitY=0.5;exitDx=0;exitDy=0;edgeStyle=orthogonalEdgeStyle;startArrow=none;startFill=0;jumpStyle=arc;entryX=0.001;entryY=0.829;entryDx=0;entryDy=0;entryPerimeter=0;" parent="1" source="kNVPU6iSRhLmxhHYzBde-261" target="kNVPU6iSRhLmxhHYzBde-214" edge="1">
          <mxGeometry width="50" height="50" relative="1" as="geometry">
            <mxPoint x="262" y="408" as="sourcePoint" />
            <mxPoint x="367" y="416" as="targetPoint" />
            <Array as="points">
              <mxPoint x="311" y="695" />
              <mxPoint x="311" y="416" />
            </Array>
          </mxGeometry>
        </mxCell>
        <mxCell id="kNVPU6iSRhLmxhHYzBde-313" value="1" style="text;html=1;strokeColor=none;fillColor=none;align=center;verticalAlign=middle;whiteSpace=wrap;rounded=0;fontSize=11;fontFamily=Helvetica;fontColor=default;" parent="1" vertex="1">
          <mxGeometry x="227" y="670" width="60" height="30" as="geometry" />
        </mxCell>
        <mxCell id="kNVPU6iSRhLmxhHYzBde-314" value="N" style="text;html=1;strokeColor=none;fillColor=none;align=center;verticalAlign=middle;whiteSpace=wrap;rounded=0;fontSize=11;fontFamily=Helvetica;fontColor=default;" parent="1" vertex="1">
          <mxGeometry x="327" y="411" width="60" height="30" as="geometry" />
        </mxCell>
        <mxCell id="kNVPU6iSRhLmxhHYzBde-316" value="1" style="text;html=1;strokeColor=none;fillColor=none;align=center;verticalAlign=middle;whiteSpace=wrap;rounded=0;fontSize=11;fontFamily=Helvetica;fontColor=default;" parent="1" vertex="1">
          <mxGeometry x="227" y="700" width="60" height="30" as="geometry" />
        </mxCell>
        <mxCell id="kNVPU6iSRhLmxhHYzBde-317" value="N" style="text;html=1;strokeColor=none;fillColor=none;align=center;verticalAlign=middle;whiteSpace=wrap;rounded=0;fontSize=11;fontFamily=Helvetica;fontColor=default;" parent="1" vertex="1">
          <mxGeometry x="568" y="340" width="60" height="30" as="geometry" />
        </mxCell>
        <mxCell id="kNVPU6iSRhLmxhHYzBde-319" style="edgeStyle=orthogonalEdgeStyle;shape=connector;rounded=0;jumpStyle=arc;orthogonalLoop=1;jettySize=auto;html=1;entryX=0;entryY=0.5;entryDx=0;entryDy=0;labelBackgroundColor=default;strokeColor=default;fontFamily=Helvetica;fontSize=11;fontColor=default;startArrow=none;startFill=0;endArrow=none;" parent="1" source="kNVPU6iSRhLmxhHYzBde-250" target="kNVPU6iSRhLmxhHYzBde-285" edge="1">
          <mxGeometry relative="1" as="geometry" />
        </mxCell>
        <mxCell id="kNVPU6iSRhLmxhHYzBde-320" value="1" style="text;html=1;strokeColor=none;fillColor=none;align=center;verticalAlign=middle;whiteSpace=wrap;rounded=0;fontSize=11;fontFamily=Helvetica;fontColor=default;" parent="1" vertex="1">
          <mxGeometry x="715" y="425" width="60" height="30" as="geometry" />
        </mxCell>
        <mxCell id="kNVPU6iSRhLmxhHYzBde-321" value="1" style="text;html=1;strokeColor=none;fillColor=none;align=center;verticalAlign=middle;whiteSpace=wrap;rounded=0;fontSize=11;fontFamily=Helvetica;fontColor=default;" parent="1" vertex="1">
          <mxGeometry x="763" y="425" width="60" height="30" as="geometry" />
        </mxCell>
        <mxCell id="kNVPU6iSRhLmxhHYzBde-322" style="edgeStyle=orthogonalEdgeStyle;shape=connector;rounded=0;jumpStyle=arc;orthogonalLoop=1;jettySize=auto;html=1;entryX=0;entryY=0.5;entryDx=0;entryDy=0;labelBackgroundColor=default;strokeColor=default;fontFamily=Helvetica;fontSize=11;fontColor=default;startArrow=none;startFill=0;endArrow=none;" parent="1" source="kNVPU6iSRhLmxhHYzBde-250" target="kNVPU6iSRhLmxhHYzBde-279" edge="1">
          <mxGeometry relative="1" as="geometry">
            <Array as="points">
              <mxPoint x="781" y="460" />
              <mxPoint x="781" y="558" />
              <mxPoint x="825" y="558" />
            </Array>
          </mxGeometry>
        </mxCell>
        <mxCell id="kNVPU6iSRhLmxhHYzBde-323" value="N" style="text;html=1;strokeColor=none;fillColor=none;align=center;verticalAlign=middle;whiteSpace=wrap;rounded=0;fontSize=11;fontFamily=Helvetica;fontColor=default;" parent="1" vertex="1">
          <mxGeometry x="715" y="452" width="60" height="30" as="geometry" />
        </mxCell>
        <mxCell id="kNVPU6iSRhLmxhHYzBde-324" value="N" style="text;html=1;strokeColor=none;fillColor=none;align=center;verticalAlign=middle;whiteSpace=wrap;rounded=0;fontSize=11;fontFamily=Helvetica;fontColor=default;" parent="1" vertex="1">
          <mxGeometry x="785" y="525" width="60" height="30" as="geometry" />
        </mxCell>
        <mxCell id="kNVPU6iSRhLmxhHYzBde-325" style="edgeStyle=orthogonalEdgeStyle;shape=connector;rounded=0;jumpStyle=arc;orthogonalLoop=1;jettySize=auto;html=1;entryX=1;entryY=0.5;entryDx=0;entryDy=0;labelBackgroundColor=default;strokeColor=default;fontFamily=Helvetica;fontSize=11;fontColor=default;startArrow=none;startFill=0;endArrow=none;" parent="1" source="kNVPU6iSRhLmxhHYzBde-291" target="kNVPU6iSRhLmxhHYzBde-287" edge="1">
          <mxGeometry relative="1" as="geometry" />
        </mxCell>
        <mxCell id="kNVPU6iSRhLmxhHYzBde-326" value="N" style="text;html=1;strokeColor=none;fillColor=none;align=center;verticalAlign=middle;whiteSpace=wrap;rounded=0;fontSize=11;fontFamily=Helvetica;fontColor=default;" parent="1" vertex="1">
          <mxGeometry x="482" y="585" width="60" height="30" as="geometry" />
        </mxCell>
        <mxCell id="kNVPU6iSRhLmxhHYzBde-327" value="N" style="text;html=1;strokeColor=none;fillColor=none;align=center;verticalAlign=middle;whiteSpace=wrap;rounded=0;fontSize=11;fontFamily=Helvetica;fontColor=default;" parent="1" vertex="1">
          <mxGeometry x="474" y="717" width="60" height="30" as="geometry" />
        </mxCell>
        <mxCell id="kNVPU6iSRhLmxhHYzBde-328" style="edgeStyle=orthogonalEdgeStyle;shape=connector;rounded=0;jumpStyle=arc;orthogonalLoop=1;jettySize=auto;html=1;entryX=1;entryY=0.5;entryDx=0;entryDy=0;labelBackgroundColor=default;strokeColor=default;fontFamily=Helvetica;fontSize=11;fontColor=default;startArrow=none;startFill=0;endArrow=none;" parent="1" source="kNVPU6iSRhLmxhHYzBde-254" target="kNVPU6iSRhLmxhHYzBde-214" edge="1">
          <mxGeometry relative="1" as="geometry">
            <Array as="points">
              <mxPoint x="353" y="841" />
              <mxPoint x="353" y="863" />
              <mxPoint x="528" y="863" />
              <mxPoint x="528" y="406" />
            </Array>
          </mxGeometry>
        </mxCell>
        <mxCell id="kNVPU6iSRhLmxhHYzBde-329" value="1" style="text;html=1;strokeColor=none;fillColor=none;align=center;verticalAlign=middle;whiteSpace=wrap;rounded=0;fontSize=11;fontFamily=Helvetica;fontColor=default;" parent="1" vertex="1">
          <mxGeometry x="224" y="816" width="60" height="30" as="geometry" />
        </mxCell>
        <mxCell id="kNVPU6iSRhLmxhHYzBde-330" value="N" style="text;html=1;strokeColor=none;fillColor=none;align=center;verticalAlign=middle;whiteSpace=wrap;rounded=0;fontSize=11;fontFamily=Helvetica;fontColor=default;" parent="1" vertex="1">
          <mxGeometry x="488" y="381" width="60" height="30" as="geometry" />
        </mxCell>
        <mxCell id="kNVPU6iSRhLmxhHYzBde-331" style="edgeStyle=orthogonalEdgeStyle;shape=connector;rounded=0;jumpStyle=arc;orthogonalLoop=1;jettySize=auto;html=1;labelBackgroundColor=default;strokeColor=default;fontFamily=Helvetica;fontSize=11;fontColor=default;startArrow=none;startFill=0;endArrow=none;" parent="1" source="kNVPU6iSRhLmxhHYzBde-255" target="kNVPU6iSRhLmxhHYzBde-215" edge="1">
          <mxGeometry relative="1" as="geometry">
            <Array as="points">
              <mxPoint x="345" y="871" />
              <mxPoint x="345" y="436" />
            </Array>
          </mxGeometry>
        </mxCell>
        <mxCell id="kNVPU6iSRhLmxhHYzBde-332" value="N" style="text;html=1;strokeColor=none;fillColor=none;align=center;verticalAlign=middle;whiteSpace=wrap;rounded=0;fontSize=11;fontFamily=Helvetica;fontColor=default;" parent="1" vertex="1">
          <mxGeometry x="327" y="398" width="60" height="30" as="geometry" />
        </mxCell>
        <mxCell id="kNVPU6iSRhLmxhHYzBde-333" value="1" style="text;html=1;strokeColor=none;fillColor=none;align=center;verticalAlign=middle;whiteSpace=wrap;rounded=0;fontSize=11;fontFamily=Helvetica;fontColor=default;" parent="1" vertex="1">
          <mxGeometry x="224" y="848" width="60" height="30" as="geometry" />
        </mxCell>
        <mxCell id="kNVPU6iSRhLmxhHYzBde-334" style="edgeStyle=orthogonalEdgeStyle;shape=connector;rounded=0;jumpStyle=arc;orthogonalLoop=1;jettySize=auto;html=1;entryX=1.007;entryY=0.754;entryDx=0;entryDy=0;entryPerimeter=0;labelBackgroundColor=default;strokeColor=default;fontFamily=Helvetica;fontSize=11;fontColor=default;startArrow=none;startFill=0;endArrow=none;" parent="1" source="kNVPU6iSRhLmxhHYzBde-241" target="kNVPU6iSRhLmxhHYzBde-291" edge="1">
          <mxGeometry relative="1" as="geometry" />
        </mxCell>
        <mxCell id="kNVPU6iSRhLmxhHYzBde-335" value="N" style="text;html=1;strokeColor=none;fillColor=none;align=center;verticalAlign=middle;whiteSpace=wrap;rounded=0;fontSize=11;fontFamily=Helvetica;fontColor=default;" parent="1" vertex="1">
          <mxGeometry x="474" y="745" width="60" height="30" as="geometry" />
        </mxCell>
        <mxCell id="kNVPU6iSRhLmxhHYzBde-336" value="N" style="text;html=1;strokeColor=none;fillColor=none;align=center;verticalAlign=middle;whiteSpace=wrap;rounded=0;fontSize=11;fontFamily=Helvetica;fontColor=default;" parent="1" vertex="1">
          <mxGeometry x="552" y="692" width="60" height="30" as="geometry" />
        </mxCell>
        <mxCell id="kNVPU6iSRhLmxhHYzBde-337" style="edgeStyle=orthogonalEdgeStyle;shape=connector;rounded=0;jumpStyle=arc;orthogonalLoop=1;jettySize=auto;html=1;entryX=0;entryY=0.5;entryDx=0;entryDy=0;labelBackgroundColor=default;strokeColor=default;fontFamily=Helvetica;fontSize=11;fontColor=default;startArrow=none;startFill=0;endArrow=none;" parent="1" source="kNVPU6iSRhLmxhHYzBde-210" target="kNVPU6iSRhLmxhHYzBde-239" edge="1">
          <mxGeometry relative="1" as="geometry">
            <Array as="points">
              <mxPoint x="569" y="921" />
              <mxPoint x="569" y="656" />
            </Array>
          </mxGeometry>
        </mxCell>
        <mxCell id="kNVPU6iSRhLmxhHYzBde-338" value="N" style="text;html=1;strokeColor=none;fillColor=none;align=center;verticalAlign=middle;whiteSpace=wrap;rounded=0;fontSize=11;fontFamily=Helvetica;fontColor=default;" parent="1" vertex="1">
          <mxGeometry x="552" y="632" width="60" height="30" as="geometry" />
        </mxCell>
        <mxCell id="kNVPU6iSRhLmxhHYzBde-339" value="1" style="text;html=1;strokeColor=none;fillColor=none;align=center;verticalAlign=middle;whiteSpace=wrap;rounded=0;fontSize=11;fontFamily=Helvetica;fontColor=default;" parent="1" vertex="1">
          <mxGeometry x="548" y="898" width="60" height="30" as="geometry" />
        </mxCell>
        <mxCell id="kNVPU6iSRhLmxhHYzBde-340" style="edgeStyle=orthogonalEdgeStyle;shape=connector;rounded=0;jumpStyle=arc;orthogonalLoop=1;jettySize=auto;html=1;entryX=1;entryY=0.5;entryDx=0;entryDy=0;labelBackgroundColor=default;strokeColor=default;fontFamily=Helvetica;fontSize=11;fontColor=default;startArrow=none;startFill=0;endArrow=none;" parent="1" source="kNVPU6iSRhLmxhHYzBde-242" target="kNVPU6iSRhLmxhHYzBde-294" edge="1">
          <mxGeometry relative="1" as="geometry">
            <Array as="points">
              <mxPoint x="579" y="746" />
              <mxPoint x="579" y="833" />
            </Array>
          </mxGeometry>
        </mxCell>
        <mxCell id="kNVPU6iSRhLmxhHYzBde-341" value="N" style="text;html=1;strokeColor=none;fillColor=none;align=center;verticalAlign=middle;whiteSpace=wrap;rounded=0;fontSize=11;fontFamily=Helvetica;fontColor=default;" parent="1" vertex="1">
          <mxGeometry x="552" y="722" width="60" height="30" as="geometry" />
        </mxCell>
        <mxCell id="kNVPU6iSRhLmxhHYzBde-342" value="N" style="text;html=1;strokeColor=none;fillColor=none;align=center;verticalAlign=middle;whiteSpace=wrap;rounded=0;fontSize=11;fontFamily=Helvetica;fontColor=default;" parent="1" vertex="1">
          <mxGeometry x="474" y="809" width="60" height="30" as="geometry" />
        </mxCell>
        <mxCell id="kNVPU6iSRhLmxhHYzBde-343" style="edgeStyle=orthogonalEdgeStyle;shape=connector;rounded=0;jumpStyle=arc;orthogonalLoop=1;jettySize=auto;html=1;labelBackgroundColor=default;strokeColor=default;fontFamily=Helvetica;fontSize=11;fontColor=default;startArrow=none;startFill=0;endArrow=none;" parent="1" source="kNVPU6iSRhLmxhHYzBde-210" target="kNVPU6iSRhLmxhHYzBde-221" edge="1">
          <mxGeometry relative="1" as="geometry" />
        </mxCell>
        <mxCell id="kNVPU6iSRhLmxhHYzBde-344" value="1" style="text;html=1;strokeColor=none;fillColor=none;align=center;verticalAlign=middle;whiteSpace=wrap;rounded=0;fontSize=11;fontFamily=Helvetica;fontColor=default;" parent="1" vertex="1">
          <mxGeometry x="705" y="900" width="60" height="30" as="geometry" />
        </mxCell>
        <mxCell id="kNVPU6iSRhLmxhHYzBde-345" value="1" style="text;html=1;strokeColor=none;fillColor=none;align=center;verticalAlign=middle;whiteSpace=wrap;rounded=0;fontSize=11;fontFamily=Helvetica;fontColor=default;" parent="1" vertex="1">
          <mxGeometry x="732" y="962" width="60" height="30" as="geometry" />
        </mxCell>
        <mxCell id="kNVPU6iSRhLmxhHYzBde-347" style="edgeStyle=orthogonalEdgeStyle;shape=connector;rounded=0;jumpStyle=arc;orthogonalLoop=1;jettySize=auto;html=1;entryX=1;entryY=0.5;entryDx=0;entryDy=0;labelBackgroundColor=default;strokeColor=default;fontFamily=Helvetica;fontSize=11;fontColor=default;startArrow=none;startFill=0;endArrow=none;" parent="1" source="kNVPU6iSRhLmxhHYzBde-282" target="kNVPU6iSRhLmxhHYzBde-231" edge="1">
          <mxGeometry relative="1" as="geometry">
            <Array as="points">
              <mxPoint x="853" y="760" />
              <mxPoint x="853" y="859" />
              <mxPoint x="743" y="859" />
              <mxPoint x="743" y="1051" />
            </Array>
          </mxGeometry>
        </mxCell>
        <mxCell id="kNVPU6iSRhLmxhHYzBde-348" style="edgeStyle=orthogonalEdgeStyle;shape=connector;rounded=0;jumpStyle=arc;orthogonalLoop=1;jettySize=auto;html=1;entryX=0;entryY=0.5;entryDx=0;entryDy=0;labelBackgroundColor=default;strokeColor=default;fontFamily=Helvetica;fontSize=11;fontColor=default;startArrow=none;startFill=0;endArrow=none;" parent="1" source="kNVPU6iSRhLmxhHYzBde-235" target="kNVPU6iSRhLmxhHYzBde-283" edge="1">
          <mxGeometry relative="1" as="geometry">
            <Array as="points">
              <mxPoint x="516" y="1171" />
              <mxPoint x="516" y="1067" />
              <mxPoint x="754" y="1067" />
              <mxPoint x="754" y="867" />
              <mxPoint x="861" y="867" />
              <mxPoint x="861" y="790" />
            </Array>
          </mxGeometry>
        </mxCell>
        <mxCell id="kNVPU6iSRhLmxhHYzBde-349" value="N" style="text;html=1;strokeColor=none;fillColor=none;align=center;verticalAlign=middle;whiteSpace=wrap;rounded=0;fontSize=11;fontFamily=Helvetica;fontColor=default;" parent="1" vertex="1">
          <mxGeometry x="843" y="736" width="60" height="30" as="geometry" />
        </mxCell>
        <mxCell id="kNVPU6iSRhLmxhHYzBde-350" value="N" style="text;html=1;strokeColor=none;fillColor=none;align=center;verticalAlign=middle;whiteSpace=wrap;rounded=0;fontSize=11;fontFamily=Helvetica;fontColor=default;" parent="1" vertex="1">
          <mxGeometry x="848" y="766" width="60" height="30" as="geometry" />
        </mxCell>
        <mxCell id="kNVPU6iSRhLmxhHYzBde-351" value="1" style="text;html=1;strokeColor=none;fillColor=none;align=center;verticalAlign=middle;whiteSpace=wrap;rounded=0;fontSize=11;fontFamily=Helvetica;fontColor=default;" parent="1" vertex="1">
          <mxGeometry x="474" y="1026" width="60" height="30" as="geometry" />
        </mxCell>
        <mxCell id="kNVPU6iSRhLmxhHYzBde-353" value="1" style="text;html=1;strokeColor=none;fillColor=none;align=center;verticalAlign=middle;whiteSpace=wrap;rounded=0;fontSize=11;fontFamily=Helvetica;fontColor=default;" parent="1" vertex="1">
          <mxGeometry x="476" y="1145" width="60" height="30" as="geometry" />
        </mxCell>
        <mxCell id="kNVPU6iSRhLmxhHYzBde-355" style="edgeStyle=orthogonalEdgeStyle;shape=connector;rounded=0;jumpStyle=arc;orthogonalLoop=1;jettySize=auto;html=1;entryX=0;entryY=0.5;entryDx=0;entryDy=0;labelBackgroundColor=default;strokeColor=default;fontFamily=Helvetica;fontSize=11;fontColor=default;startArrow=none;startFill=0;endArrow=none;" parent="1" source="kNVPU6iSRhLmxhHYzBde-275" target="kNVPU6iSRhLmxhHYzBde-250" edge="1">
          <mxGeometry relative="1" as="geometry">
            <Array as="points">
              <mxPoint x="955" y="407" />
              <mxPoint x="955" y="387" />
              <mxPoint x="579" y="387" />
              <mxPoint x="579" y="450" />
            </Array>
          </mxGeometry>
        </mxCell>
        <mxCell id="kNVPU6iSRhLmxhHYzBde-356" value="N" style="text;html=1;strokeColor=none;fillColor=none;align=center;verticalAlign=middle;whiteSpace=wrap;rounded=0;fontSize=11;fontFamily=Helvetica;fontColor=default;" parent="1" vertex="1">
          <mxGeometry x="557" y="425" width="60" height="30" as="geometry" />
        </mxCell>
        <mxCell id="kNVPU6iSRhLmxhHYzBde-357" value="N" style="text;html=1;strokeColor=none;fillColor=none;align=center;verticalAlign=middle;whiteSpace=wrap;rounded=0;fontSize=11;fontFamily=Helvetica;fontColor=default;" parent="1" vertex="1">
          <mxGeometry x="1008" y="383" width="60" height="30" as="geometry" />
        </mxCell>
        <mxCell id="kNVPU6iSRhLmxhHYzBde-361" style="edgeStyle=orthogonalEdgeStyle;shape=connector;rounded=0;jumpStyle=arc;orthogonalLoop=1;jettySize=auto;html=1;labelBackgroundColor=default;strokeColor=default;fontFamily=Helvetica;fontSize=11;fontColor=default;startArrow=none;startFill=0;endArrow=none;" parent="1" source="kNVPU6iSRhLmxhHYzBde-298" target="kNVPU6iSRhLmxhHYzBde-210" edge="1">
          <mxGeometry relative="1" as="geometry">
            <Array as="points">
              <mxPoint x="1029" y="746" />
              <mxPoint x="1029" y="815" />
              <mxPoint x="871" y="815" />
              <mxPoint x="871" y="851" />
              <mxPoint x="762" y="851" />
              <mxPoint x="762" y="926" />
            </Array>
          </mxGeometry>
        </mxCell>
        <mxCell id="kNVPU6iSRhLmxhHYzBde-362" value="1" style="text;html=1;strokeColor=none;fillColor=none;align=center;verticalAlign=middle;whiteSpace=wrap;rounded=0;fontSize=11;fontFamily=Helvetica;fontColor=default;" parent="1" vertex="1">
          <mxGeometry x="705" y="921" width="60" height="30" as="geometry" />
        </mxCell>
        <mxCell id="kNVPU6iSRhLmxhHYzBde-363" value="N" style="text;html=1;strokeColor=none;fillColor=none;align=center;verticalAlign=middle;whiteSpace=wrap;rounded=0;fontSize=11;fontFamily=Helvetica;fontColor=default;" parent="1" vertex="1">
          <mxGeometry x="1002" y="722" width="60" height="30" as="geometry" />
        </mxCell>
        <mxCell id="kNVPU6iSRhLmxhHYzBde-364" style="edgeStyle=orthogonalEdgeStyle;shape=connector;rounded=0;jumpStyle=arc;orthogonalLoop=1;jettySize=auto;html=1;labelBackgroundColor=default;strokeColor=default;fontFamily=Helvetica;fontSize=11;fontColor=default;startArrow=none;startFill=0;endArrow=none;" parent="1" source="kNVPU6iSRhLmxhHYzBde-283" target="kNVPU6iSRhLmxhHYzBde-245" edge="1">
          <mxGeometry relative="1" as="geometry" />
        </mxCell>
        <mxCell id="kNVPU6iSRhLmxhHYzBde-365" value="1" style="text;html=1;strokeColor=none;fillColor=none;align=center;verticalAlign=middle;whiteSpace=wrap;rounded=0;fontSize=11;fontFamily=Helvetica;fontColor=default;" parent="1" vertex="1">
          <mxGeometry x="723" y="782" width="60" height="30" as="geometry" />
        </mxCell>
        <mxCell id="kNVPU6iSRhLmxhHYzBde-366" style="edgeStyle=orthogonalEdgeStyle;shape=connector;rounded=0;jumpStyle=arc;orthogonalLoop=1;jettySize=auto;html=1;labelBackgroundColor=default;strokeColor=default;fontFamily=Helvetica;fontSize=11;fontColor=default;startArrow=none;startFill=0;endArrow=none;" parent="1" source="kNVPU6iSRhLmxhHYzBde-280" target="kNVPU6iSRhLmxhHYzBde-276" edge="1">
          <mxGeometry relative="1" as="geometry" />
        </mxCell>
        <mxCell id="kNVPU6iSRhLmxhHYzBde-367" value="N" style="text;html=1;strokeColor=none;fillColor=none;align=center;verticalAlign=middle;whiteSpace=wrap;rounded=0;fontSize=11;fontFamily=Helvetica;fontColor=default;" parent="1" vertex="1">
          <mxGeometry x="1008" y="413" width="60" height="30" as="geometry" />
        </mxCell>
        <mxCell id="kNVPU6iSRhLmxhHYzBde-368" value="N" style="text;html=1;strokeColor=none;fillColor=none;align=center;verticalAlign=middle;whiteSpace=wrap;rounded=0;fontSize=11;fontFamily=Helvetica;fontColor=default;" parent="1" vertex="1">
          <mxGeometry x="939" y="563" width="60" height="30" as="geometry" />
        </mxCell>
        <mxCell id="kNVPU6iSRhLmxhHYzBde-371" value="N" style="text;html=1;strokeColor=none;fillColor=none;align=center;verticalAlign=middle;whiteSpace=wrap;rounded=0;fontSize=11;fontFamily=Helvetica;fontColor=default;" parent="1" vertex="1">
          <mxGeometry x="785" y="670" width="60" height="30" as="geometry" />
        </mxCell>
        <mxCell id="kNVPU6iSRhLmxhHYzBde-373" value="1" style="text;html=1;strokeColor=none;fillColor=none;align=center;verticalAlign=middle;whiteSpace=wrap;rounded=0;fontSize=11;fontFamily=Helvetica;fontColor=default;" parent="1" vertex="1">
          <mxGeometry x="723" y="752" width="60" height="30" as="geometry" />
        </mxCell>
        <mxCell id="kNVPU6iSRhLmxhHYzBde-374" style="edgeStyle=orthogonalEdgeStyle;shape=connector;rounded=0;jumpStyle=arc;orthogonalLoop=1;jettySize=auto;html=1;entryX=0;entryY=0.5;entryDx=0;entryDy=0;labelBackgroundColor=default;strokeColor=default;fontFamily=Helvetica;fontSize=11;fontColor=default;startArrow=none;startFill=0;endArrow=none;" parent="1" source="kNVPU6iSRhLmxhHYzBde-229" target="kNVPU6iSRhLmxhHYzBde-247" edge="1">
          <mxGeometry relative="1" as="geometry">
            <Array as="points">
              <mxPoint x="512" y="991" />
              <mxPoint x="512" y="1037" />
              <mxPoint x="1025" y="1037" />
              <mxPoint x="1025" y="540" />
            </Array>
          </mxGeometry>
        </mxCell>
        <mxCell id="kNVPU6iSRhLmxhHYzBde-376" value="N" style="text;html=1;strokeColor=none;fillColor=none;align=center;verticalAlign=middle;whiteSpace=wrap;rounded=0;fontSize=11;fontFamily=Helvetica;fontColor=default;" parent="1" vertex="1">
          <mxGeometry x="476" y="966" width="60" height="30" as="geometry" />
        </mxCell>
        <mxCell id="kNVPU6iSRhLmxhHYzBde-377" value="1" style="text;html=1;strokeColor=none;fillColor=none;align=center;verticalAlign=middle;whiteSpace=wrap;rounded=0;fontSize=11;fontFamily=Helvetica;fontColor=default;" parent="1" vertex="1">
          <mxGeometry x="999" y="511" width="60" height="30" as="geometry" />
        </mxCell>
        <mxCell id="kNVPU6iSRhLmxhHYzBde-378" value="Изделия на складе (регистры накоплений)" style="swimlane;fontStyle=0;childLayout=stackLayout;horizontal=1;startSize=30;horizontalStack=0;resizeParent=1;resizeParentMax=0;resizeLast=0;collapsible=1;marginBottom=0;whiteSpace=wrap;html=1;" parent="1" vertex="1">
          <mxGeometry x="823" y="617" width="140" height="90" as="geometry">
            <mxRectangle x="100" y="810" width="110" height="30" as="alternateBounds" />
          </mxGeometry>
        </mxCell>
        <mxCell id="kNVPU6iSRhLmxhHYzBde-379" value="Кондитерские изделия" style="text;strokeColor=none;fillColor=none;align=left;verticalAlign=middle;spacingLeft=4;spacingRight=4;overflow=hidden;points=[[0,0.5],[1,0.5]];portConstraint=eastwest;rotatable=0;whiteSpace=wrap;html=1;" parent="kNVPU6iSRhLmxhHYzBde-378" vertex="1">
          <mxGeometry y="30" width="140" height="30" as="geometry" />
        </mxCell>
        <mxCell id="kNVPU6iSRhLmxhHYzBde-380" value="Количество" style="text;strokeColor=none;fillColor=none;align=left;verticalAlign=middle;spacingLeft=4;spacingRight=4;overflow=hidden;points=[[0,0.5],[1,0.5]];portConstraint=eastwest;rotatable=0;whiteSpace=wrap;html=1;" parent="kNVPU6iSRhLmxhHYzBde-378" vertex="1">
          <mxGeometry y="60" width="140" height="30" as="geometry" />
        </mxCell>
        <mxCell id="kNVPU6iSRhLmxhHYzBde-382" style="edgeStyle=orthogonalEdgeStyle;shape=connector;rounded=0;jumpStyle=arc;orthogonalLoop=1;jettySize=auto;html=1;labelBackgroundColor=default;strokeColor=default;fontFamily=Helvetica;fontSize=11;fontColor=default;startArrow=none;startFill=0;endArrow=none;" parent="1" source="kNVPU6iSRhLmxhHYzBde-380" target="kNVPU6iSRhLmxhHYzBde-244" edge="1">
          <mxGeometry relative="1" as="geometry" />
        </mxCell>
        <mxCell id="kNVPU6iSRhLmxhHYzBde-383" style="edgeStyle=orthogonalEdgeStyle;shape=connector;rounded=0;jumpStyle=arc;orthogonalLoop=1;jettySize=auto;html=1;labelBackgroundColor=default;strokeColor=default;fontFamily=Helvetica;fontSize=11;fontColor=default;startArrow=none;startFill=0;endArrow=none;" parent="1" source="kNVPU6iSRhLmxhHYzBde-379" target="kNVPU6iSRhLmxhHYzBde-291" edge="1">
          <mxGeometry relative="1" as="geometry">
            <Array as="points">
              <mxPoint x="755" y="662" />
              <mxPoint x="755" y="544" />
              <mxPoint x="557" y="544" />
              <mxPoint x="557" y="747" />
            </Array>
          </mxGeometry>
        </mxCell>
        <mxCell id="kNVPU6iSRhLmxhHYzBde-384" value="N" style="text;html=1;strokeColor=none;fillColor=none;align=center;verticalAlign=middle;whiteSpace=wrap;rounded=0;fontSize=11;fontFamily=Helvetica;fontColor=default;" parent="1" vertex="1">
          <mxGeometry x="503" y="740" width="7" height="7" as="geometry" />
        </mxCell>
        <mxCell id="kNVPU6iSRhLmxhHYzBde-386" value="N" style="text;html=1;strokeColor=none;fillColor=none;align=center;verticalAlign=middle;whiteSpace=wrap;rounded=0;fontSize=11;fontFamily=Helvetica;fontColor=default;" parent="1" vertex="1">
          <mxGeometry x="785" y="640" width="60" height="30" as="geometry" />
        </mxCell>
      </root>
    </mxGraphModel>
  </diagram>
</mxfile>
